<mxfile host="app.diagrams.net" modified="2020-09-02T11:54:20.674Z" agent="5.0 (X11; Linux x86_64) AppleWebKit/537.36 (KHTML, like Gecko) Chrome/85.0.4183.83 Safari/537.36" etag="okW66nmPwSsjcAPHbFst" version="13.6.6" type="github">
  <diagram id="ZPI1J-8MCfSklKxrDMqZ" name="Page-1">
    <mxGraphModel dx="796" dy="425" grid="1" gridSize="10" guides="1" tooltips="1" connect="1" arrows="1" fold="1" page="1" pageScale="1" pageWidth="827" pageHeight="1169" math="0" shadow="0">
      <root>
        <mxCell id="0" />
        <mxCell id="1" parent="0" />
        <mxCell id="2Qy59pavpMn8tdLB1T0c-13" style="edgeStyle=orthogonalEdgeStyle;rounded=0;orthogonalLoop=1;jettySize=auto;html=1;exitX=0.5;exitY=1;exitDx=0;exitDy=0;exitPerimeter=0;" parent="1" source="2Qy59pavpMn8tdLB1T0c-3" target="2Qy59pavpMn8tdLB1T0c-6" edge="1">
          <mxGeometry relative="1" as="geometry" />
        </mxCell>
        <mxCell id="2Qy59pavpMn8tdLB1T0c-3" value="Start" style="strokeWidth=2;html=1;shape=mxgraph.flowchart.terminator;whiteSpace=wrap;" parent="1" vertex="1">
          <mxGeometry x="20" y="20" width="100" height="40" as="geometry" />
        </mxCell>
        <mxCell id="2Qy59pavpMn8tdLB1T0c-5" value="End" style="strokeWidth=2;html=1;shape=mxgraph.flowchart.terminator;whiteSpace=wrap;" parent="1" vertex="1">
          <mxGeometry x="490" y="360" width="100" height="40" as="geometry" />
        </mxCell>
        <mxCell id="2Qy59pavpMn8tdLB1T0c-15" style="edgeStyle=orthogonalEdgeStyle;rounded=0;orthogonalLoop=1;jettySize=auto;html=1;exitX=1;exitY=0.5;exitDx=0;exitDy=0;exitPerimeter=0;entryX=0;entryY=0.5;entryDx=0;entryDy=0;entryPerimeter=0;" parent="1" source="2Qy59pavpMn8tdLB1T0c-6" edge="1">
          <mxGeometry relative="1" as="geometry">
            <mxPoint x="160" y="150" as="targetPoint" />
          </mxGeometry>
        </mxCell>
        <mxCell id="2Qy59pavpMn8tdLB1T0c-17" style="edgeStyle=orthogonalEdgeStyle;rounded=0;orthogonalLoop=1;jettySize=auto;html=1;exitX=0.5;exitY=1;exitDx=0;exitDy=0;exitPerimeter=0;entryX=0.5;entryY=0;entryDx=0;entryDy=0;entryPerimeter=0;" parent="1" source="2Qy59pavpMn8tdLB1T0c-6" target="2Qy59pavpMn8tdLB1T0c-7" edge="1">
          <mxGeometry relative="1" as="geometry" />
        </mxCell>
        <mxCell id="2Qy59pavpMn8tdLB1T0c-6" value="already registered?" style="strokeWidth=2;html=1;shape=mxgraph.flowchart.decision;whiteSpace=wrap;" parent="1" vertex="1">
          <mxGeometry x="20" y="100" width="100" height="100" as="geometry" />
        </mxCell>
        <mxCell id="2Qy59pavpMn8tdLB1T0c-19" style="edgeStyle=orthogonalEdgeStyle;rounded=0;orthogonalLoop=1;jettySize=auto;html=1;exitX=0.5;exitY=1;exitDx=0;exitDy=0;exitPerimeter=0;entryX=0.492;entryY=-0.067;entryDx=0;entryDy=0;entryPerimeter=0;" parent="1" source="2Qy59pavpMn8tdLB1T0c-7" edge="1">
          <mxGeometry relative="1" as="geometry">
            <mxPoint x="69.03999999999996" y="365.98" as="targetPoint" />
          </mxGeometry>
        </mxCell>
        <mxCell id="2Qy59pavpMn8tdLB1T0c-25" value="" style="edgeStyle=orthogonalEdgeStyle;rounded=0;orthogonalLoop=1;jettySize=auto;html=1;" parent="1" source="2Qy59pavpMn8tdLB1T0c-7" target="2Qy59pavpMn8tdLB1T0c-24" edge="1">
          <mxGeometry relative="1" as="geometry" />
        </mxCell>
        <mxCell id="2Qy59pavpMn8tdLB1T0c-7" value="Register with Email?" style="strokeWidth=2;html=1;shape=mxgraph.flowchart.decision;whiteSpace=wrap;" parent="1" vertex="1">
          <mxGeometry x="20" y="230" width="100" height="100" as="geometry" />
        </mxCell>
        <mxCell id="2Qy59pavpMn8tdLB1T0c-28" value="" style="edgeStyle=orthogonalEdgeStyle;rounded=0;orthogonalLoop=1;jettySize=auto;html=1;" parent="1" source="2Qy59pavpMn8tdLB1T0c-24" edge="1">
          <mxGeometry relative="1" as="geometry">
            <mxPoint x="290" y="280" as="targetPoint" />
          </mxGeometry>
        </mxCell>
        <mxCell id="2Qy59pavpMn8tdLB1T0c-24" value="Facebook/Google&lt;br&gt;/LinkedIN" style="rounded=1;whiteSpace=wrap;html=1;absoluteArcSize=1;arcSize=14;strokeWidth=2;" parent="1" vertex="1">
          <mxGeometry x="160" y="255" width="100" height="50" as="geometry" />
        </mxCell>
        <mxCell id="2Qy59pavpMn8tdLB1T0c-31" value="No" style="text;html=1;align=center;verticalAlign=middle;resizable=0;points=[];autosize=1;" parent="1" vertex="1">
          <mxGeometry x="120" y="260" width="30" height="20" as="geometry" />
        </mxCell>
        <mxCell id="2Qy59pavpMn8tdLB1T0c-32" value="Yes" style="text;html=1;align=center;verticalAlign=middle;resizable=0;points=[];autosize=1;" parent="1" vertex="1">
          <mxGeometry x="60" y="330" width="40" height="20" as="geometry" />
        </mxCell>
        <mxCell id="2Qy59pavpMn8tdLB1T0c-34" value="No" style="text;html=1;align=center;verticalAlign=middle;resizable=0;points=[];autosize=1;" parent="1" vertex="1">
          <mxGeometry x="65" y="200" width="30" height="20" as="geometry" />
        </mxCell>
        <mxCell id="2Qy59pavpMn8tdLB1T0c-35" value="Yes" style="text;html=1;align=center;verticalAlign=middle;resizable=0;points=[];autosize=1;" parent="1" vertex="1">
          <mxGeometry x="120" y="130" width="40" height="20" as="geometry" />
        </mxCell>
        <mxCell id="2Qy59pavpMn8tdLB1T0c-36" value="Email &amp;amp; Password?" style="strokeWidth=2;html=1;shape=mxgraph.flowchart.decision;whiteSpace=wrap;" parent="1" vertex="1">
          <mxGeometry x="160" y="110" width="80" height="85" as="geometry" />
        </mxCell>
        <mxCell id="2Qy59pavpMn8tdLB1T0c-37" value="Facebook/Google&lt;br&gt;/LinkedIN" style="rounded=1;whiteSpace=wrap;html=1;absoluteArcSize=1;arcSize=14;strokeWidth=2;" parent="1" vertex="1">
          <mxGeometry x="300" y="30" width="100" height="50" as="geometry" />
        </mxCell>
        <mxCell id="2Qy59pavpMn8tdLB1T0c-40" value="Yes" style="text;html=1;align=center;verticalAlign=middle;resizable=0;points=[];autosize=1;" parent="1" vertex="1">
          <mxGeometry x="270" y="155" width="40" height="20" as="geometry" />
        </mxCell>
        <mxCell id="2Qy59pavpMn8tdLB1T0c-42" value="&lt;span&gt;Fill Form&lt;/span&gt;" style="shape=parallelogram;html=1;strokeWidth=2;perimeter=parallelogramPerimeter;whiteSpace=wrap;rounded=1;arcSize=12;size=0.23;" parent="1" vertex="1">
          <mxGeometry x="10" y="370" width="100" height="60" as="geometry" />
        </mxCell>
        <mxCell id="2Qy59pavpMn8tdLB1T0c-41" value="&lt;span&gt;Fill E-Mail &amp;amp; Password&lt;/span&gt;" style="shape=parallelogram;html=1;strokeWidth=2;perimeter=parallelogramPerimeter;whiteSpace=wrap;rounded=1;arcSize=12;size=0.23;" parent="1" vertex="1">
          <mxGeometry x="280" y="122.5" width="100" height="60" as="geometry" />
        </mxCell>
        <mxCell id="2Qy59pavpMn8tdLB1T0c-43" value="" style="edgeStyle=orthogonalEdgeStyle;rounded=0;orthogonalLoop=1;jettySize=auto;html=1;" parent="1" source="2Qy59pavpMn8tdLB1T0c-36" target="2Qy59pavpMn8tdLB1T0c-41" edge="1">
          <mxGeometry relative="1" as="geometry">
            <mxPoint x="240" y="150" as="sourcePoint" />
            <mxPoint x="320" y="150" as="targetPoint" />
          </mxGeometry>
        </mxCell>
        <mxCell id="2Qy59pavpMn8tdLB1T0c-45" value="Fill Form" style="shape=parallelogram;html=1;strokeWidth=2;perimeter=parallelogramPerimeter;whiteSpace=wrap;rounded=1;arcSize=12;size=0.23;" parent="1" vertex="1">
          <mxGeometry x="280" y="250" width="100" height="60" as="geometry" />
        </mxCell>
        <mxCell id="2Qy59pavpMn8tdLB1T0c-66" value="" style="edgeStyle=orthogonalEdgeStyle;rounded=0;orthogonalLoop=1;jettySize=auto;html=1;" parent="1" source="2Qy59pavpMn8tdLB1T0c-46" target="2Qy59pavpMn8tdLB1T0c-54" edge="1">
          <mxGeometry relative="1" as="geometry" />
        </mxCell>
        <mxCell id="2Qy59pavpMn8tdLB1T0c-46" value="Work Homepage" style="rounded=1;whiteSpace=wrap;html=1;absoluteArcSize=1;arcSize=14;strokeWidth=2;" parent="1" vertex="1">
          <mxGeometry x="400" y="260" width="100" height="40" as="geometry" />
        </mxCell>
        <mxCell id="2Qy59pavpMn8tdLB1T0c-47" value="" style="endArrow=classic;html=1;entryX=0;entryY=0.5;entryDx=0;entryDy=0;exitX=1;exitY=0.5;exitDx=0;exitDy=0;" parent="1" source="2Qy59pavpMn8tdLB1T0c-45" target="2Qy59pavpMn8tdLB1T0c-46" edge="1">
          <mxGeometry width="50" height="50" relative="1" as="geometry">
            <mxPoint x="330" y="270" as="sourcePoint" />
            <mxPoint x="380" y="220" as="targetPoint" />
          </mxGeometry>
        </mxCell>
        <mxCell id="2Qy59pavpMn8tdLB1T0c-48" value="" style="endArrow=classic;html=1;exitX=0.5;exitY=0;exitDx=0;exitDy=0;exitPerimeter=0;entryX=0;entryY=0.5;entryDx=0;entryDy=0;" parent="1" source="2Qy59pavpMn8tdLB1T0c-36" target="2Qy59pavpMn8tdLB1T0c-37" edge="1">
          <mxGeometry width="50" height="50" relative="1" as="geometry">
            <mxPoint x="330" y="110" as="sourcePoint" />
            <mxPoint x="380" y="60" as="targetPoint" />
            <Array as="points">
              <mxPoint x="200" y="55" />
            </Array>
          </mxGeometry>
        </mxCell>
        <mxCell id="2Qy59pavpMn8tdLB1T0c-49" value="Yes" style="text;html=1;align=center;verticalAlign=middle;resizable=0;points=[];autosize=1;" parent="1" vertex="1">
          <mxGeometry x="240" y="160" width="40" height="20" as="geometry" />
        </mxCell>
        <mxCell id="2Qy59pavpMn8tdLB1T0c-50" value="No" style="text;html=1;align=center;verticalAlign=middle;resizable=0;points=[];autosize=1;" parent="1" vertex="1">
          <mxGeometry x="215" y="60" width="30" height="20" as="geometry" />
        </mxCell>
        <mxCell id="2Qy59pavpMn8tdLB1T0c-52" value="" style="endArrow=classic;html=1;entryX=0.5;entryY=0;entryDx=0;entryDy=0;exitX=1;exitY=0.5;exitDx=0;exitDy=0;" parent="1" source="2Qy59pavpMn8tdLB1T0c-37" target="2Qy59pavpMn8tdLB1T0c-46" edge="1">
          <mxGeometry width="50" height="50" relative="1" as="geometry">
            <mxPoint x="450" y="60" as="sourcePoint" />
            <mxPoint x="464" y="45" as="targetPoint" />
            <Array as="points">
              <mxPoint x="450" y="55" />
            </Array>
          </mxGeometry>
        </mxCell>
        <mxCell id="2Qy59pavpMn8tdLB1T0c-53" value="" style="endArrow=none;html=1;exitX=1;exitY=0.5;exitDx=0;exitDy=0;" parent="1" source="2Qy59pavpMn8tdLB1T0c-41" edge="1">
          <mxGeometry width="50" height="50" relative="1" as="geometry">
            <mxPoint x="330" y="270" as="sourcePoint" />
            <mxPoint x="450" y="153" as="targetPoint" />
          </mxGeometry>
        </mxCell>
        <mxCell id="2Qy59pavpMn8tdLB1T0c-60" value="" style="edgeStyle=orthogonalEdgeStyle;rounded=0;orthogonalLoop=1;jettySize=auto;html=1;" parent="1" source="2Qy59pavpMn8tdLB1T0c-54" target="2Qy59pavpMn8tdLB1T0c-55" edge="1">
          <mxGeometry relative="1" as="geometry" />
        </mxCell>
        <mxCell id="2Qy59pavpMn8tdLB1T0c-54" value="View Job" style="rounded=1;whiteSpace=wrap;html=1;absoluteArcSize=1;arcSize=14;strokeWidth=2;" parent="1" vertex="1">
          <mxGeometry x="540" y="260" width="100" height="40" as="geometry" />
        </mxCell>
        <mxCell id="2Qy59pavpMn8tdLB1T0c-63" value="" style="edgeStyle=orthogonalEdgeStyle;rounded=0;orthogonalLoop=1;jettySize=auto;html=1;" parent="1" source="2Qy59pavpMn8tdLB1T0c-55" target="2Qy59pavpMn8tdLB1T0c-56" edge="1">
          <mxGeometry relative="1" as="geometry" />
        </mxCell>
        <mxCell id="bMEoRKqvWE-8DaZaXo3G-1" value="" style="edgeStyle=orthogonalEdgeStyle;rounded=0;orthogonalLoop=1;jettySize=auto;html=1;" edge="1" parent="1" source="2Qy59pavpMn8tdLB1T0c-55" target="2Qy59pavpMn8tdLB1T0c-56">
          <mxGeometry relative="1" as="geometry" />
        </mxCell>
        <mxCell id="2Qy59pavpMn8tdLB1T0c-55" value="Interested?" style="strokeWidth=2;html=1;shape=mxgraph.flowchart.decision;whiteSpace=wrap;" parent="1" vertex="1">
          <mxGeometry x="540" y="130" width="100" height="80" as="geometry" />
        </mxCell>
        <mxCell id="2Qy59pavpMn8tdLB1T0c-68" value="" style="edgeStyle=orthogonalEdgeStyle;rounded=0;orthogonalLoop=1;jettySize=auto;html=1;" parent="1" source="2Qy59pavpMn8tdLB1T0c-56" target="2Qy59pavpMn8tdLB1T0c-67" edge="1">
          <mxGeometry relative="1" as="geometry" />
        </mxCell>
        <mxCell id="2Qy59pavpMn8tdLB1T0c-56" value="Apply" style="rounded=1;whiteSpace=wrap;html=1;absoluteArcSize=1;arcSize=14;strokeWidth=2;" parent="1" vertex="1">
          <mxGeometry x="670" y="150" width="100" height="40" as="geometry" />
        </mxCell>
        <mxCell id="2Qy59pavpMn8tdLB1T0c-61" value="" style="endArrow=classic;html=1;exitX=0;exitY=0.5;exitDx=0;exitDy=0;exitPerimeter=0;entryX=0;entryY=0.5;entryDx=0;entryDy=0;" parent="1" source="2Qy59pavpMn8tdLB1T0c-55" target="2Qy59pavpMn8tdLB1T0c-54" edge="1">
          <mxGeometry width="50" height="50" relative="1" as="geometry">
            <mxPoint x="430" y="100" as="sourcePoint" />
            <mxPoint x="510" y="275" as="targetPoint" />
            <Array as="points">
              <mxPoint x="510" y="170" />
              <mxPoint x="510" y="280" />
            </Array>
          </mxGeometry>
        </mxCell>
        <mxCell id="2Qy59pavpMn8tdLB1T0c-62" value="No" style="text;html=1;align=center;verticalAlign=middle;resizable=0;points=[];autosize=1;" parent="1" vertex="1">
          <mxGeometry x="510" y="142.5" width="30" height="20" as="geometry" />
        </mxCell>
        <mxCell id="2Qy59pavpMn8tdLB1T0c-64" value="Yes" style="text;html=1;align=center;verticalAlign=middle;resizable=0;points=[];autosize=1;" parent="1" vertex="1">
          <mxGeometry x="630" y="142.5" width="40" height="20" as="geometry" />
        </mxCell>
        <mxCell id="2Qy59pavpMn8tdLB1T0c-65" value="" style="endArrow=classic;html=1;exitX=1;exitY=0.5;exitDx=0;exitDy=0;entryX=0.5;entryY=1;entryDx=0;entryDy=0;" parent="1" source="2Qy59pavpMn8tdLB1T0c-42" target="2Qy59pavpMn8tdLB1T0c-46" edge="1">
          <mxGeometry width="50" height="50" relative="1" as="geometry">
            <mxPoint x="330" y="430" as="sourcePoint" />
            <mxPoint x="270" y="410" as="targetPoint" />
            <Array as="points">
              <mxPoint x="450" y="400" />
            </Array>
          </mxGeometry>
        </mxCell>
        <mxCell id="2Qy59pavpMn8tdLB1T0c-69" value="" style="edgeStyle=orthogonalEdgeStyle;rounded=0;orthogonalLoop=1;jettySize=auto;html=1;" parent="1" source="2Qy59pavpMn8tdLB1T0c-67" target="2Qy59pavpMn8tdLB1T0c-54" edge="1">
          <mxGeometry relative="1" as="geometry" />
        </mxCell>
        <mxCell id="2Qy59pavpMn8tdLB1T0c-70" value="" style="edgeStyle=orthogonalEdgeStyle;rounded=0;orthogonalLoop=1;jettySize=auto;html=1;exitX=1;exitY=0.5;exitDx=0;exitDy=0;entryX=1;entryY=0.5;entryDx=0;entryDy=0;entryPerimeter=0;" parent="1" source="2Qy59pavpMn8tdLB1T0c-67" target="2Qy59pavpMn8tdLB1T0c-5" edge="1">
          <mxGeometry relative="1" as="geometry" />
        </mxCell>
        <mxCell id="2Qy59pavpMn8tdLB1T0c-67" value="Done?" style="rhombus;whiteSpace=wrap;html=1;" parent="1" vertex="1">
          <mxGeometry x="680" y="240" width="80" height="80" as="geometry" />
        </mxCell>
        <mxCell id="2Qy59pavpMn8tdLB1T0c-71" value="No" style="text;html=1;align=center;verticalAlign=middle;resizable=0;points=[];autosize=1;" parent="1" vertex="1">
          <mxGeometry x="650" y="280" width="30" height="20" as="geometry" />
        </mxCell>
        <mxCell id="2Qy59pavpMn8tdLB1T0c-72" value="Yes" style="text;html=1;align=center;verticalAlign=middle;resizable=0;points=[];autosize=1;" parent="1" vertex="1">
          <mxGeometry x="760" y="250" width="40" height="20" as="geometry" />
        </mxCell>
        <mxCell id="bMEoRKqvWE-8DaZaXo3G-2" value="" style="endArrow=classic;html=1;exitX=0.5;exitY=1;exitDx=0;exitDy=0;entryX=0.5;entryY=1;entryDx=0;entryDy=0;" edge="1" parent="1" source="2Qy59pavpMn8tdLB1T0c-54" target="2Qy59pavpMn8tdLB1T0c-67">
          <mxGeometry width="50" height="50" relative="1" as="geometry">
            <mxPoint x="620" y="300" as="sourcePoint" />
            <mxPoint x="670" y="250" as="targetPoint" />
            <Array as="points">
              <mxPoint x="590" y="350" />
              <mxPoint x="720" y="350" />
            </Array>
          </mxGeometry>
        </mxCell>
      </root>
    </mxGraphModel>
  </diagram>
</mxfile>
